{"title":"MikesApartment.15.08.19.Subil.Arch.Do.Me.Right.XXX.1080p.MP4-KTR","uid":12250413,"size":3099620317,"categoryP":"porn","categoryS":"hd___movies","magnet":"?xt=urn:btih:247a82f18ba50fbfae789ed8484ba56519030c20&amp;dn=MikesApartment.15.08.19.Subil.Arch.Do.Me.Right.XXX.1080p.MP4-KTR&amp;tr=udp%3A%2F%2Ftracker.openbittorrent.com%3A80&amp;tr=udp%3A%2F%2Fopen.demonii.com%3A1337&amp;tr=udp%3A%2F%2Ftracker.coppersurfer.tk%3A6969&amp;tr=udp%3A%2F%2Fexodus.desync.com%3A6969","seeders":0,"leechers":4,"uploader":"Ctrlme","files":1,"time":1440008474,"description":"MikesApartment.15.08.19.Subil.Arch.Do.Me.Right.XXX.1080p.MP4-KTR\n\nScreenshot(s): &lt;a href=&quot;\nhttp://imgctrl.com/image/N6v&quot; rel=&quot;nofollow&quot; target=&quot;_NEW&quot;&gt;\nhttp://imgctrl.com/image/N6v&lt;/a&gt; &lt;a href=&quot;\nhttp://imgctrl.com/image/N6D&quot; rel=&quot;nofollow&quot; target=&quot;_NEW&quot;&gt;\nhttp://imgctrl.com/image/N6D&lt;/a&gt;\n\nGeneral\nComplete name : MikesApartment.15.08.19.Subil.Arch.Do.Me.Right.XXX.1080p.mp4\nFormat : MPEG-4\nFormat profile : Base Media\nCodec ID : isom\nFile size : 2.89 GiB\nDuration : 40mn 32s\nOverall bit rate mode : Variable\nOverall bit rate : 10.2 Mbps\nMovie name : PornFlix.To MikesApartment.15.08.19.Subil.Arch.Do.Me.Right.XXX\nWriting application : Lavf56.40.101\nComment : pORNfLIX\n\nVideo\nID : 1\nFormat : AVC\nFormat/Info : Advanced Video Codec\nFormat profile : &lt;a class=&quot;__cf_email__&quot; href=&quot;/cdn-cgi/l/email-protection&quot; data-cfemail=&quot;bdf5d4dad5fdf189938d&quot;&gt;[email&amp;#160;protected]&lt;/a&gt;&lt;script data-cfhash='f9e31' type=&quot;text/javascript&quot;&gt;\n/* &lt;![CDATA[ */!function(){try{var t=&quot;currentScript&quot;in document?document.currentScript:function(){for(var t=document.getElementsByTagName(&quot;script&quot;),e=t.length;e--;)if(t[e].getAttribute(&quot;data-cfhash&quot;))return t[e]}();if(t&amp;&amp;t.previousSibling){var e,r,n,i,c=t.previousSibling,a=c.getAttribute(&quot;data-cfemail&quot;);if(a){for(e=&quot;&quot;,r=parseInt(a.substr(0,2),16),n=2;a.length-n;n+=2)i=parseInt(a.substr(n,2),16)^r,e+=String.fromCharCode(i);e=document.createTextNode(e),c.parentNode.replaceChild(e,c)}t.parentNode.removeChild(t);}}catch(u){}}()/* ]]&gt; */&lt;/script&gt;\nFormat settings, CABAC : No\nFormat settings, ReFrames : 3 frames\nCodec ID : avc1\nCodec ID/Info : Advanced Video Coding\nDuration : 40mn 32s\nBit rate mode : Variable\nBit rate : 10.0 Mbps\nWidth : 1 920 pixels\nHeight : 1 080 pixels\nDisplay aspect ratio : 16:9\nFrame rate mode : Constant\nFrame rate : 29.970 fps\nStandard : Component\nColor space : YUV\nChroma subsampling : 4:2:0\nBit depth : 8 bits\nScan type : Progressive\nBits/(Pixel*Frame) : 0.161\nStream size : 2.83 GiB (98%)\n\nAudio\nID : 2\nFormat : AAC\nFormat/Info : Advanced Audio Codec\nFormat profile : LC\nCodec ID : 40\nDuration : 40mn 32s\nBit rate mode : Constant\nBit rate : 192 Kbps\nChannel(s) : 2 channels\nChannel positions : Front: L R\nSampling rate : 48.0 KHz\nCompression mode : Lossy\nStream size : 55.7 MiB (2%)\n\nâ˜…â˜…â˜…â˜…â˜…â˜…â˜…â˜…â˜…â˜…â˜…â˜…â˜…â˜…â˜…â˜…â˜…â˜…â˜…â˜…â˜…â˜…â˜…â˜…â˜…â˜…â˜…â˜…â˜…â˜…â˜…â˜…â˜…â˜…â˜…â˜…â˜…â˜…â˜…â˜…â˜…â˜…â˜…â˜…â˜…â˜…â˜…â˜…â˜…â˜…â˜…â˜…â˜…â˜…â˜…â˜…\n\n               If you like this torrent, please post a comment!\n            \n                            Don't forget to seed!\n\nâ˜…â˜…â˜…â˜…â˜…â˜…â˜…â˜…â˜…â˜…â˜…â˜…â˜…â˜…â˜…â˜…â˜…â˜…â˜…â˜…â˜…â˜…â˜…â˜…â˜…â˜…â˜…â˜…â˜…â˜…â˜…â˜…â˜…â˜…â˜…â˜…â˜…â˜…â˜…â˜…â˜…â˜…â˜…â˜…â˜…â˜…â˜…â˜…â˜…â˜…â˜…â˜…â˜…â˜…â˜…â˜…\n &lt;a href=&quot;\nhttps://pirates-forum.org/User-Ctrlme&quot; rel=&quot;nofollow&quot; target=&quot;_NEW&quot;&gt;\nhttps://pirates-forum.org/User-Ctrlme&lt;/a&gt;\n &lt;a href=&quot;\nhttps://thepiratebay.vg/user/Ctrlme/&quot; rel=&quot;nofollow&quot; target=&quot;_NEW&quot;&gt;\nhttps://thepiratebay.vg/user/Ctrlme/&lt;/a&gt;","torrent":{"xt":"urn:btih:247a82f18ba50fbfae789ed8484ba56519030c20","amp;dn":"MikesApartment.15.08.19.Subil.Arch.Do.Me.Right.XXX.1080p.MP4-KTR","amp;tr":["udp%3A%2F%2Ftracker.openbittorrent.com%3A80","udp%3A%2F%2Fopen.demonii.com%3A1337","udp%3A%2F%2Ftracker.coppersurfer.tk%3A6969","udp%3A%2F%2Fexodus.desync.com%3A6969"],"infoHash":"247a82f18ba50fbfae789ed8484ba56519030c20","infoHashBuffer":{"type":"Buffer","data":[36,122,130,241,139,165,15,191,174,120,158,216,72,75,165,101,25,3,12,32]},"announce":[],"urlList":[]}}